<mxfile host="app.diagrams.net" modified="2020-09-17T10:56:53.976Z" agent="5.0 (Macintosh; Intel Mac OS X 10_14_6) AppleWebKit/537.36 (KHTML, like Gecko) Chrome/85.0.4183.102 Safari/537.36" etag="bJawOw0mQuYZ5PVpSJ-H" version="13.7.2" type="github">
  <diagram id="sjg8jl005RiExZCF981C" name="Page-1">
    <mxGraphModel dx="946" dy="645" grid="1" gridSize="10" guides="1" tooltips="1" connect="1" arrows="1" fold="1" page="1" pageScale="1" pageWidth="3300" pageHeight="4681" background="none" math="0" shadow="0">
      <root>
        <mxCell id="0" />
        <mxCell id="1" parent="0" />
        <mxCell id="wmV3_B3atS1MQDu6KJQv-1" value="测试" style="rounded=0;whiteSpace=wrap;html=1;" parent="1" vertex="1">
          <mxGeometry x="1659.82" y="27.43" width="100" height="40" as="geometry" />
        </mxCell>
        <mxCell id="wmV3_B3atS1MQDu6KJQv-10" value="" style="strokeWidth=2;html=1;shape=mxgraph.flowchart.annotation_2;align=left;labelPosition=right;pointerEvents=1;rotation=90;" parent="1" vertex="1">
          <mxGeometry x="1659.8200000000002" y="-300" width="101" height="835.87" as="geometry" />
        </mxCell>
        <mxCell id="wmV3_B3atS1MQDu6KJQv-18" value="" style="strokeWidth=2;html=1;shape=mxgraph.flowchart.annotation_2;align=left;labelPosition=right;pointerEvents=1;rotation=90;" parent="1" vertex="1">
          <mxGeometry x="2070" y="47.43" width="100" height="420" as="geometry" />
        </mxCell>
        <mxCell id="wmV3_B3atS1MQDu6KJQv-19" value="测试" style="rounded=0;whiteSpace=wrap;html=1;" parent="1" vertex="1">
          <mxGeometry x="1240" y="167.43" width="100" height="40" as="geometry" />
        </mxCell>
        <mxCell id="wmV3_B3atS1MQDu6KJQv-20" value="测试" style="rounded=0;whiteSpace=wrap;html=1;" parent="1" vertex="1">
          <mxGeometry x="2080" y="167.43" width="100" height="40" as="geometry" />
        </mxCell>
        <mxCell id="wmV3_B3atS1MQDu6KJQv-23" value="测试" style="rounded=0;whiteSpace=wrap;html=1;" parent="1" vertex="1">
          <mxGeometry x="1860" y="307.43" width="100" height="40" as="geometry" />
        </mxCell>
        <mxCell id="wmV3_B3atS1MQDu6KJQv-24" value="测试" style="rounded=0;whiteSpace=wrap;html=1;" parent="1" vertex="1">
          <mxGeometry x="2280" y="307.43" width="100" height="40" as="geometry" />
        </mxCell>
        <mxCell id="wmV3_B3atS1MQDu6KJQv-26" value="" style="strokeWidth=2;html=1;shape=mxgraph.flowchart.annotation_2;align=left;labelPosition=right;pointerEvents=1;rotation=90;" parent="1" vertex="1">
          <mxGeometry x="1240" y="47.43" width="100" height="420" as="geometry" />
        </mxCell>
        <mxCell id="wmV3_B3atS1MQDu6KJQv-27" value="测试" style="rounded=0;whiteSpace=wrap;html=1;" parent="1" vertex="1">
          <mxGeometry x="1030" y="307.43" width="100" height="40" as="geometry" />
        </mxCell>
        <mxCell id="wmV3_B3atS1MQDu6KJQv-28" value="测试" style="rounded=0;whiteSpace=wrap;html=1;" parent="1" vertex="1">
          <mxGeometry x="1450" y="307.43" width="100" height="40" as="geometry" />
        </mxCell>
        <mxCell id="wmV3_B3atS1MQDu6KJQv-30" value="" style="strokeWidth=2;html=1;shape=mxgraph.flowchart.annotation_2;align=left;labelPosition=right;pointerEvents=1;rotation=90;" parent="1" vertex="1">
          <mxGeometry x="1030" y="190" width="100" height="420" as="geometry" />
        </mxCell>
        <mxCell id="wmV3_B3atS1MQDu6KJQv-31" value="测试" style="rounded=0;whiteSpace=wrap;html=1;" parent="1" vertex="1">
          <mxGeometry x="820" y="450" width="100" height="40" as="geometry" />
        </mxCell>
        <mxCell id="wmV3_B3atS1MQDu6KJQv-32" value="测试" style="rounded=0;whiteSpace=wrap;html=1;" parent="1" vertex="1">
          <mxGeometry x="1240" y="450" width="100" height="40" as="geometry" />
        </mxCell>
        <mxCell id="wmV3_B3atS1MQDu6KJQv-33" value="" style="strokeWidth=2;html=1;shape=mxgraph.flowchart.annotation_2;align=left;labelPosition=right;pointerEvents=1;rotation=90;" parent="1" vertex="1">
          <mxGeometry x="820" y="330" width="100" height="420" as="geometry" />
        </mxCell>
        <mxCell id="wmV3_B3atS1MQDu6KJQv-34" value="测试" style="rounded=0;whiteSpace=wrap;html=1;direction=south;" parent="1" vertex="1">
          <mxGeometry x="600" y="570" width="120" height="50" as="geometry" />
        </mxCell>
        <mxCell id="wmV3_B3atS1MQDu6KJQv-35" value="测试" style="rounded=0;whiteSpace=wrap;html=1;" parent="1" vertex="1">
          <mxGeometry x="1030" y="590" width="100" height="40" as="geometry" />
        </mxCell>
        <mxCell id="wmV3_B3atS1MQDu6KJQv-36" value="" style="strokeWidth=2;html=1;shape=mxgraph.flowchart.annotation_2;align=left;labelPosition=right;pointerEvents=1;rotation=90;" parent="1" vertex="1">
          <mxGeometry x="610" y="467.43" width="100" height="420" as="geometry" />
        </mxCell>
        <mxCell id="wmV3_B3atS1MQDu6KJQv-37" value="测试" style="rounded=0;whiteSpace=wrap;html=1;" parent="1" vertex="1">
          <mxGeometry x="400" y="727.4300000000001" width="100" height="40" as="geometry" />
        </mxCell>
        <mxCell id="wmV3_B3atS1MQDu6KJQv-38" value="测试" style="rounded=0;whiteSpace=wrap;html=1;" parent="1" vertex="1">
          <mxGeometry x="820" y="727.4300000000001" width="100" height="40" as="geometry" />
        </mxCell>
      </root>
    </mxGraphModel>
  </diagram>
</mxfile>
